# xmcd CD database file
#
# Track frame offsets:
#	150
#	42421
#	88901
#	126281
#	169335
#	204982
#	235790
#
# Disc length: 3593 seconds
#
# Revision: 0
# Processed by: cddbd v1.5.2PL0 Copyright (c) Steve Scherf et al.
# Submitted via: CDex 1.51
#
DISCID=5d0e0707
DTITLE=Sonny Clark - Cool Struttin' - Sonny's Crib - My Conception CD1
DYEAR=1957
DGENRE=Jazz
TTITLE0=Cool Struttin'
TTITLE1=Blue Minor
TTITLE2=Sippin' at Bells
TTITLE3=Deep Night
TTITLE4=With a Song In My Heart
TTITLE5=Speak Low
TTITLE6=Come Rain or Come Shine
EXTD=YEAR: 1957
EXTT0=
EXTT1=
EXTT2=
EXTT3=
EXTT4=
EXTT5=
EXTT6=
PLAYORDER=
